<svg xmlns="http://www.w3.org/2000/svg" viewBox="0 0 210 294">
  <defs>
    <linearGradient id="bg" x1="0" y1="0" x2="0" y2="1">
      <stop offset="0" stop-color="#f4efe3"/>
      <stop offset="1" stop-color="#e9e0ce"/>
    </linearGradient>
    <linearGradient id="wash" x1="0" y1="0" x2="1" y2="1">
      <stop offset="0" stop-color="#d4a07a" stop-opacity="0"/>
      <stop offset=".55" stop-color="#c48070" stop-opacity="0.36"/>
      <stop offset="1" stop-color="#8b4a44" stop-opacity="0"/>
    </linearGradient>
  </defs>
  <rect width="210" height="294" fill="url(#bg)"/>
  <ellipse cx="158" cy="86" rx="90" ry="64" fill="url(#wash)"/>
  <ellipse cx="60" cy="228" rx="100" ry="68" fill="url(#wash)" opacity="0.7"/>
  <!-- croquis -->
  <g stroke="#1f1a14" stroke-width="1.1" fill="none" stroke-linecap="round">
    <ellipse cx="105" cy="56" rx="11" ry="14"/>
    <path d="M105 70 L105 84 M84 96 Q105 88 126 96"/>
    <path d="M80 98 Q105 116 130 98 L124 144 Q105 154 86 144 Z" fill="#ede0c8" stroke-width="1.1"/>
    <path d="M86 146 L68 258 Q105 270 142 258 L124 146"/>
    <path d="M96 152 L88 244 M105 154 L105 268 M114 152 L122 244"/>
    <path d="M82 104 Q68 150 72 182"/>
    <path d="M128 104 Q142 150 138 182"/>
  </g>
  <text x="105" y="288" text-anchor="middle" font-family="serif" font-size="7.5" fill="#a67a3f" letter-spacing="3">SILHOUETTE STUDY</text>
</svg>
