<svg xmlns="http://www.w3.org/2000/svg" viewBox="0 0 210 294">
  <rect width="210" height="294" fill="#0e1a2e"/>
  <defs>
    <radialGradient id="glow8" cx="50%" cy="48%" r="52%">
      <stop offset="0" stop-color="#7ab7d9" stop-opacity="0.38"/>
      <stop offset="1" stop-color="#7ab7d9" stop-opacity="0"/>
    </radialGradient>
  </defs>
  <rect width="210" height="294" fill="url(#glow8)"/>
  <!-- hexagonal mesh -->
  <g stroke="#d5e9f5" stroke-width="0.8" fill="none" opacity="0.82">
    <!-- row 1 -->
    <polygon points="105,18 126,30 126,54 105,66 84,54 84,30"/>
    <!-- row 2 left -->
    <polygon points="63,54 84,66 84,90 63,102 42,90 42,66"/>
    <!-- row 2 right -->
    <polygon points="147,54 168,66 168,90 147,102 126,90 126,66"/>
    <!-- row 3 -->
    <polygon points="105,90 126,102 126,126 105,138 84,126 84,102"/>
    <!-- row 4 left -->
    <polygon points="63,126 84,138 84,162 63,174 42,162 42,138"/>
    <!-- row 4 right -->
    <polygon points="147,126 168,138 168,162 147,174 126,162 126,138"/>
    <!-- row 5 -->
    <polygon points="105,162 126,174 126,198 105,210 84,198 84,174"/>
    <!-- row 6 left -->
    <polygon points="63,198 84,210 84,234 63,246 42,234 42,210"/>
    <!-- row 6 right -->
    <polygon points="147,198 168,210 168,234 147,246 126,234 126,210"/>
    <!-- row 7 centre -->
    <polygon points="105,234 126,246 126,270 105,282 84,270 84,246"/>
  </g>
  <!-- spine -->
  <line x1="105" y1="18" x2="105" y2="282" stroke="#c9a26b" stroke-width="0.8" opacity="0.55"/>
  <!-- centre node -->
  <circle cx="105" cy="150" r="8" fill="none" stroke="#e6f3fb" stroke-width="1.2" opacity="0.9"/>
  <circle cx="105" cy="150" r="3" fill="#e6f3fb"/>
  <text x="105" y="288" text-anchor="middle" font-family="serif" font-size="7.5" fill="#7ab7d9" letter-spacing="3">MESH &amp; STRUCTURE</text>
</svg>
